<svg width="520" height="256" viewBox="0 0 520 256" xmlns="http://www.w3.org/2000/svg">
<rect x="1" y="1" width="518" height="254" fill="#1B1F2A" rx="8" stroke="#C8CBD0" stroke-width="1"/>
<text x="26" y="40" fill="#6CA6FF" font-family="Segoe UI, Arial, sans-serif" font-size="19" font-weight="700">Linguagens mais usadas</text>

<defs>
    <clipPath id="barClip">
        <rect
            x="26"
            y="60"
            width="468"
            height="10"
            rx="5"
        />
    </clipPath>
</defs>

<rect x="26" y="60" width="468" height="10" fill="#30363D" rx="5"/>
<rect x="26.00" y="60" width="179.06" height="10" fill="#3178c6" clip-path="url(#barClip)"/>
<rect x="205.06" y="60" width="154.05" height="10" fill="#4F5D95" clip-path="url(#barClip)"/>
<rect x="359.11" y="60" width="60.92" height="10" fill="#f1e05a" clip-path="url(#barClip)"/>
<rect x="420.02" y="60" width="30.90" height="10" fill="#563d7c" clip-path="url(#barClip)"/>
<rect x="450.92" y="60" width="18.76" height="10" fill="#555555" clip-path="url(#barClip)"/>
<rect x="469.68" y="60" width="6.38" height="10" fill="hsl(292, 65%, 55%)" clip-path="url(#barClip)"/>
<rect x="476.06" y="60" width="6.05" height="10" fill="#3572A5" clip-path="url(#barClip)"/>
<rect x="482.11" y="60" width="5.88" height="10" fill="#89e051" clip-path="url(#barClip)"/>
<rect x="487.99" y="60" width="4.31" height="10" fill="#e34c26" clip-path="url(#barClip)"/>
<rect x="492.30" y="60" width="1.70" height="10" fill="#f34b7d" clip-path="url(#barClip)"/>
<circle cx="32" cy="102" r="5" fill="#3178c6"/>
<text x="46" y="107" fill="#D8E1EB" font-family="Segoe UI, Arial, sans-serif" font-size="14">TypeScript 37.9%</text>
<circle cx="32" cy="132" r="5" fill="#4F5D95"/>
<text x="46" y="137" fill="#D8E1EB" font-family="Segoe UI, Arial, sans-serif" font-size="14">PHP 32.6%</text>
<circle cx="32" cy="162" r="5" fill="#f1e05a"/>
<text x="46" y="167" fill="#D8E1EB" font-family="Segoe UI, Arial, sans-serif" font-size="14">JavaScript 12.9%</text>
<circle cx="32" cy="192" r="5" fill="#563d7c"/>
<text x="46" y="197" fill="#D8E1EB" font-family="Segoe UI, Arial, sans-serif" font-size="14">CSS 6.5%</text>
<circle cx="32" cy="222" r="5" fill="#555555"/>
<text x="46" y="227" fill="#D8E1EB" font-family="Segoe UI, Arial, sans-serif" font-size="14">C 4.0%</text>
<circle cx="275" cy="102" r="5" fill="hsl(292, 65%, 55%)"/>
<text x="289" y="107" fill="#D8E1EB" font-family="Segoe UI, Arial, sans-serif" font-size="14">Handlebars 1.3%</text>
<circle cx="275" cy="132" r="5" fill="#3572A5"/>
<text x="289" y="137" fill="#D8E1EB" font-family="Segoe UI, Arial, sans-serif" font-size="14">Python 1.3%</text>
<circle cx="275" cy="162" r="5" fill="#89e051"/>
<text x="289" y="167" fill="#D8E1EB" font-family="Segoe UI, Arial, sans-serif" font-size="14">Shell 1.2%</text>
<circle cx="275" cy="192" r="5" fill="#e34c26"/>
<text x="289" y="197" fill="#D8E1EB" font-family="Segoe UI, Arial, sans-serif" font-size="14">HTML 0.9%</text>
<circle cx="275" cy="222" r="5" fill="#f34b7d"/>
<text x="289" y="227" fill="#D8E1EB" font-family="Segoe UI, Arial, sans-serif" font-size="14">C++ 0.4%</text>
</svg>